#!OML:ASF E:\acrobat2\Project_11_07_03\Capture day 1\Session 1\Acrobat.ASF
:FULLY-SPECIFIED
:DEGREES
1144
root 2.65043 7.37893 -17.0781 -312.394 51.5397 29.9696
lowerback 35.4018 -6.57186 -4.17908
upperback 11.3591 -8.45596 -0.0185701
thorax -4.60399 -3.7171 4.97982
lowerneck 3.46444 -1.93413 -1.31924
upperneck -16.8571 -2.26579 2.83074
head -5.59608 -1.18874 1.23478
rclavicle -9.34288e-014 8.60738e-014
rhumerus -37.3579 11.1196 -72.6532
rradius 92.461
rwrist 363.437
rhand -14.5287 -43.4638
rfingers 7.12502
rthumb 11.6192 286.878
lclavicle -9.34288e-014 8.60738e-014
lhumerus 68.5505 -34.4915 3.79309
lradius 26.7484
lwrist 3.63722
lhand -53.1182 -15.4327
lfingers 7.12502
lthumb -25.579 12.8697
rfemur -100.856 -29.9066 37.9816
rtibia 19.6569
rfoot -194.082 -7.189
rtoes 42.3535
lfemur -99.3605 35.0933 -24.0474
ltibia 35.1336
lfoot -514.627 24.6111
ltoes 54.9521
1145
root 2.63332 7.4877 -17.1715 -313.147 51.1635 29.3641
lowerback 35.191 -6.34417 -4.88336
upperback 11.0333 -8.4376 0.263991
thorax -4.75201 -3.7393 5.63434
lowerneck 2.85282 -2.24993 -1.14049
upperneck -16.6664 -2.71924 2.6381
head -5.4281 -1.40893 1.15964
rclavicle -2.78299e-015 -3.3694e-014
rhumerus -36.2524 9.53704 -72.2225
rradius 92.195
rwrist 362.177
rhand -15.5585 -44.6428
rfingers 7.12502
rthumb 10.626 285.646
lclavicle -2.78299e-015 -3.3694e-014
lhumerus 69.6421 -35.2097 2.21325
lradius 26.2689
lwrist 4.51419
lhand -51.308 -11.533
lfingers 7.12502
lthumb -23.844 17.0071
rfemur -100.502 -29.2949 37.2179
rtibia 20.3136
rfoot -194.724 -6.963
rtoes 42.0649
lfemur -99.2495 35.0421 -24.6708
ltibia 35.5296
lfoot -515.539 24.9472
ltoes 54.5617
1146
root 2.62006 7.61077 -17.2663 -313.879 50.7209 28.7174
lowerback 35.0492 -6.10264 -5.39039
upperback 10.7053 -8.33708 0.539127
thorax -4.9645 -3.71083 6.16294
lowerneck 2.22569 -2.56646 -0.978909
upperneck -16.5524 -3.17056 2.46375
head -5.28322 -1.62864 1.09131
rclavicle 1.39149e-014 3.37934e-014
rhumerus -35.2309 8.21495 -71.7689
rradius 91.7862
rwrist 361.518
rhand -16.6676 -45.8253
rfingers 7.12502
rthumb 9.55604 284.411
lclavicle 1.39149e-014 3.37934e-014
lhumerus 70.9019 -35.7809 0.641438
lradius 26.0211
lwrist 5.517
lhand -49.1011 -7.87899
lfingers 7.12502
lthumb -21.7261 20.9218
rfemur -100.149 -28.6021 36.2481
rtibia 21.0116
rfoot -195.273 -6.93474
rtoes 41.5696
lfemur -99.1672 34.9116 -25.429
ltibia 35.9593
lfoot -516.925 25.4217
ltoes 54.021
1147
root 2.61193 7.7463 -17.3651 -314.631 50.3287 27.982
lowerback 34.954 -5.89471 -5.55727
upperback 10.3963 -8.16169 0.822032
thorax -5.23016 -3.63497 6.50723
lowerneck 1.6115 -2.89129 -0.834123
upperneck -16.5468 -3.62414 2.35069
head -5.17468 -1.85287 1.04424
rclavicle -4.29375e-014 -1.07344e-014
rhumerus -34.2382 7.0773 -71.2184
rradius 91.3388
rwrist 361.028
rhand -17.5501 -46.9813
rfingers 7.12502
rthumb 8.70452 283.218
lclavicle -4.29375e-014 -1.07344e-014
lhumerus 72.1296 -36.1655 -0.512891
lradius 25.912
lwrist 6.27322
lhand -46.4829 -4.64344
lfingers 7.12502
lthumb -19.2101 24.4278
rfemur -99.7726 -27.9065 35.1959
rtibia 21.8082
rfoot -195.61 -7.07673
rtoes 41.1313
lfemur -99.1337 34.651 -26.2239
ltibia 36.3944
lfoot -518.761 25.9617
ltoes 53.3013
1148
root 2.60827 7.89219 -17.4648 -315.353 49.913 27.2275
lowerback 34.8767 -5.67486 -5.52549
upperback 10.1191 -7.90112 1.09651
thorax -5.50881 -3.51272 6.71399
lowerneck 0.994516 -3.21977 -0.738846
upperneck -16.6089 -4.06811 2.35599
head -5.08463 -2.0771 1.04019
rclavicle 9.38264e-014 -5.40694e-014
rhumerus -33.2094 6.14119 -70.5169
rradius 90.8263
rwrist 360.61
rhand -18.2044 -48.0524
rfingers 7.12502
rthumb 8.07306 282.122
lclavicle 9.38264e-014 -5.40694e-014
lhumerus 73.1876 -36.3704 -1.06608
lradius 25.89
lwrist 6.63805
lhand -43.4588 -1.99544
lfingers 7.12502
lthumb -16.3002 27.3395
rfemur -99.4417 -27.1949 34.0901
rtibia 22.7349
rfoot -195.757 -7.23606
rtoes 40.4013
lfemur -99.1069 34.3135 -27.1064
ltibia 36.8673
lfoot -520.951 26.4876
ltoes 52.3857
1149
root 2.60769 8.04735 -17.5641 -316.009 49.4665 26.509
lowerback 34.8217 -5.44744 -5.35061
upperback 9.87235 -7.58015 1.34676
thorax -5.79358 -3.35771 6.80133
lowerneck 0.359665 -3.55557 -0.75131
upperneck -16.6701 -4.49962 2.56008
head -4.98459 -2.30116 1.11193
rclavicle 1.26427e-013 2.64384e-014
rhumerus -32.1116 5.40073 -69.6896
rradius 90.2362
rwrist 360.241
rhand -18.61 -49.0056
rfingers 7.12502
rthumb 7.68162 281.154
lclavicle 1.26427e-013 2.64384e-014
lhumerus 74.0624 -36.4364 -1.10074
lradius 25.9348
lwrist 6.68458
lhand -40.0864 -0.0170165
lfingers 7.12502
lthumb -13.051 29.5547
rfemur -99.1355 -26.5049 32.9301
rtibia 23.78
rfoot -195.788 -7.43195
rtoes 39.5692
lfemur -99.0528 33.913 -28.0711
ltibia 37.4018
lfoot -523.417 26.9499
ltoes 51.2665
1150
root 2.61155 8.21045 -17.6633 -316.636 49.0161 25.8126
lowerback 34.7965 -5.23925 -5.0094
upperback 9.66273 -7.22406 1.56538
thorax -6.07738 -3.18308 6.75571
lowerneck -0.251961 -3.89085 -0.83732
upperneck -16.7298 -4.91332 2.9071
head -4.88179 -2.52047 1.23685
rclavicle 4.25399e-014 -6.71892e-014
rhumerus -30.9194 4.83837 -68.776
rradius 89.5552
rwrist 359.925
rhand -18.7526 -49.8098
rfingers 7.12502
rthumb 7.5439 280.345
lclavicle 4.25399e-014 -6.71892e-014
lhumerus 74.8109 -36.3964 -0.817793
lradius 26.0504
lwrist 6.61089
lhand -36.4555 1.27719
lfingers 7.12502
lthumb -9.54934 31.0408
rfemur -98.8058 -25.9011 31.7205
rtibia 24.9354
rfoot -195.73 -7.72883
rtoes 38.7404
lfemur -98.947 33.4686 -29.0674
ltibia 38.0021
lfoot -526.134 27.3153
ltoes 49.868
1151
root 2.61773 8.38037 -17.7615 -317.306 48.5389 25.0784
lowerback 34.8316 -5.01825 -4.56102
upperback 9.49546 -6.81156 1.77012
thorax -6.3558 -2.98116 6.61927
lowerneck -0.796448 -4.21787 -0.960558
upperneck -16.7963 -5.30797 3.31733
head -4.78811 -2.73166 1.38566
rclavicle -6.75868e-014 1.98785e-015
rhumerus -29.5811 4.44535 -67.7499
rradius 88.7616
rwrist 359.618
rhand -18.6048 -50.4148
rfingers 7.12502
rthumb 7.68661 279.745
lclavicle -6.75868e-014 1.98785e-015
lhumerus 75.4933 -36.2627 -0.382282
lradius 26.2469
lwrist 6.61753
lhand -32.6266 1.9399
lfingers 7.12502
lthumb -5.85371 31.839
rfemur -98.3766 -25.3232 30.4996
rtibia 26.2047
rfoot -195.637 -8.10743
rtoes 37.9879
lfemur -98.7613 33.0921 -30.0362
ltibia 38.6757
lfoot -528.982 27.5142
ltoes 48.1481
1152
root 2.62645 8.55581 -17.8597 -317.951 48.0508 24.3783
lowerback 34.9095 -4.8327 -4.01177
upperback 9.36304 -6.40472 1.95102
thorax -6.61996 -2.78214 6.40336
lowerneck -1.21314 -4.51583 -1.08645
upperneck -16.9102 -5.66458 3.71071
head -4.7297 -2.92306 1.53048
rclavicle 7.95139e-016 9.18385e-014
rhumerus -28.0821 4.22916 -66.6658
rradius 87.8542
rwrist 359.358
rhand -18.1817 -50.7626
rfingers 7.12502
rthumb 8.09495 279.412
lclavicle 7.95139e-016 9.18385e-014
lhumerus 76.0814 -36.0461 0.0994942
lradius 26.5376
lwrist 6.83583
lhand -28.6507 2.08036
lfingers 7.12502
lthumb -2.01436 32.0506
rfemur -97.8599 -24.8386 29.3057
rtibia 27.5749
rfoot -195.568 -8.52375
rtoes 37.2935
lfemur -98.5339 32.7243 -31.0191
ltibia 39.4148
lfoot -531.86 27.4459
ltoes 46.1106
1153
root 2.63823 8.73496 -17.956 -318.565 47.5475 23.7068
lowerback 35.0005 -4.70363 -3.37935
upperback 9.26259 -6.03624 2.10217
thorax -6.8545 -2.60284 6.12039
lowerneck -1.46932 -4.76655 -1.13884
upperneck -17.1052 -5.97277 3.96416
head -4.72964 -3.08766 1.62382
rclavicle -1.82882e-014 -3.73715e-014
rhumerus -26.4109 4.18734 -65.5988
rradius 86.802
rwrist 359.226
rhand -17.5298 -50.817
rfingers 7.12502
rthumb 8.72414 279.383
lclavicle -1.82882e-014 -3.73715e-014
lhumerus 76.4229 -35.7774 0.731336
lradius 26.929
lwrist 7.21091
lhand -24.5824 1.79086
lfingers 7.12502
lthumb 1.91488 31.762
rfemur -97.2835 -24.4632 28.1908
rtibia 29.0016
rfoot -195.556 -8.95293
rtoes 36.756
lfemur -98.29 32.3978 -31.9909
ltibia 40.2133
lfoot -534.515 27.0406
ltoes 43.8901
1154
root 2.65316 8.91596 -18.0492 -319.092 47.0211 23.0965
lowerback 35.0535 -4.63373 -2.70102
upperback 9.18777 -5.72384 2.2195
thorax -7.04153 -2.45278 5.79001
lowerneck -1.61923 -4.97929 -1.24526
upperneck -17.2562 -6.23245 4.21668
head -4.73211 -3.22578 1.72567
rclavicle 2.22639e-014 -6.16232e-014
rhumerus -24.5664 4.29769 -64.5799
rradius 85.5767
rwrist 359.238
rhand -16.7054 -50.5861
rfingers 7.12502
rthumb 9.51963 279.649
lclavicle 2.22639e-014 -6.16232e-014
lhumerus 76.5008 -35.4862 1.46806
lradius 27.4445
lwrist 7.78035
lhand -20.4596 1.21052
lfingers 7.12502
lthumb 5.89614 31.1085
rfemur -96.7546 -24.2341 27.213
rtibia 30.4502
rfoot -195.586 -9.30567
rtoes 36.1573
lfemur -98.0753 32.1095 -32.9511
ltibia 41.0631
lfoot -536.706 26.2957
ltoes 41.7033
1155
root 2.67085 9.09709 -18.1388 -319.483 46.4761 22.5733
lowerback 35.0308 -4.59115 -2.00689
upperback 9.12472 -5.44007 2.31888
thorax -7.18149 -2.31942 5.43532
lowerneck -1.61406 -5.14763 -1.24192
upperneck -17.4106 -6.45333 4.29981
head -4.77182 -3.34294 1.76136
rclavicle 5.40694e-014 -9.46215e-014
rhumerus -22.5722 4.49659 -63.5525
rradius 84.1533
rwrist 359.315
rhand -15.794 -50.1101
rfingers 7.12502
rthumb 10.3988 280.167
lclavicle 5.40694e-014 -9.46215e-014
lhumerus 76.3641 -35.2288 2.42266
lradius 28.0373
lwrist 8.41721
lhand -16.2999 0.469948
lfingers 7.12502
lthumb 9.9108 30.2167
rfemur -96.3708 -24.1719 26.4141
rtibia 31.8778
rfoot -195.64 -9.53948
rtoes 35.4163
lfemur -97.9492 31.8376 -33.8993
ltibia 41.9477
lfoot -538.262 25.2514
ltoes 39.8014
1156
root 2.6907 9.27677 -18.2249 -319.731 45.9123 22.1282
lowerback 34.9246 -4.53755 -1.31809
upperback 9.0615 -5.14591 2.42118
thorax -7.28507 -2.18432 5.07694
lowerneck -1.4659 -5.2759 -1.00822
upperneck -17.5803 -6.65729 4.07584
head -4.86088 -3.4491 1.67056
rclavicle -1.74931e-014 5.48646e-014
rhumerus -20.4588 4.72974 -62.4621
rradius 82.5119
rwrist 359.405
rhand -14.854 -49.463
rfingers 7.12502
rthumb 11.3056 280.862
lclavicle -1.74931e-014 5.48646e-014
lhumerus 76.0588 -35.0578 3.75221
lradius 28.6399
lwrist 8.96941
lhand -12.1414 -0.333007
lfingers 7.12502
lthumb 13.9207 29.181
rfemur -96.1936 -24.2758 25.8259
rtibia 33.2473
rfoot -195.697 -9.62794
rtoes 34.5105
lfemur -97.9603 31.5782 -34.8209
ltibia 42.8478
lfoot -539.125 23.9642
ltoes 38.3018
1157
root 2.71146 9.45346 -18.3071 -319.837 45.3196 21.7567
lowerback 34.7412 -4.44776 -0.667944
upperback 8.99067 -4.82315 2.5331
thorax -7.36095 -2.03856 4.73422
lowerneck -1.26494 -5.39517 -0.683755
upperneck -17.6418 -6.87044 3.702
head -4.9355 -3.55667 1.51927
rclavicle -5.56597e-014 1.37559e-013
rhumerus -18.2615 4.96548 -61.317
rradius 80.6588
rwrist 359.492
rhand -13.9045 -48.7272
rfingers 7.12502
rthumb 12.2212 281.65
lclavicle -5.56597e-014 1.37559e-013
lhumerus 75.6747 -34.9937 5.41821
lradius 29.2136
lwrist 9.41892
lhand -8.07168 -1.09465
lfingers 7.12502
lthumb 17.8399 28.1071
rfemur -96.2502 -24.5327 25.4422
rtibia 34.5393
rfoot -195.715 -9.58122
rtoes 33.3807
lfemur -98.1305 31.3338 -35.6987
ltibia 43.7462
lfoot -539.289 22.482
ltoes 37.2707
1158
root 2.73251 9.62599 -18.3853 -319.827 44.6739 21.4498
lowerback 34.4876 -4.2451 -0.165726
upperback 8.92936 -4.40713 2.71913
thorax -7.38639 -1.85294 4.50986
lowerneck -0.995579 -5.52167 -0.214578
upperneck -17.6566 -7.12578 3.08129
head -5.02337 -3.6791 1.27272
rclavicle -2.8625e-014 -4.21423e-014
rhumerus -15.9956 5.14853 -60.0358
rradius 78.6123
rwrist 359.539
rhand -12.9684 -47.9556
rfingers 7.12502
rthumb 13.1236 282.477
lclavicle -2.8625e-014 -4.21423e-014
lhumerus 75.2869 -35.0049 7.49188
lradius 29.7182
lwrist 9.67585
lhand -4.16423 -1.78551
lfingers 7.12502
lthumb 21.5962 27.0303
rfemur -96.4823 -24.8919 25.1979
rtibia 35.7693
rfoot -195.637 -9.45819
rtoes 32.1714
lfemur -98.4576 31.1254 -36.531
ltibia 44.6279
lfoot -538.851 20.8377
ltoes 36.5665
